# xmcd
#
# Track frame offsets:
# 200
# 16650
# 32575
# 49665
# 73047
# 91665
# 108985
# 128925
# 142892
# 164802
#
# Disc length: 2465 seconds
#
#
# Revision: 0
# Processed by: cddbd v1.4PL0 Copyright (c) Steve Scherf et al.
# Submitted via: FreeRIP 2.40 
#
DISCID=7c099f0a
DTITLE=Sarah DeLane - Sarah DeLane
DYEAR=1900
DGENRE=Gospel
TTITLE0=Try Again
TTITLE1=Don't Be Speakin That Doubt
TTITLE2=Do That In Me
TTITLE3=Without You
TTITLE4=Don't Be Afraid To Love
TTITLE5=Turn Around
TTITLE6=I Was Born To Love You
TTITLE7=Straight And Narrow
TTITLE8=Standing, Walking, Running
TTITLE9=I Know You
EXTD=
EXTT0=
EXTT1=
EXTT2=
EXTT3=
EXTT4=
EXTT5=
EXTT6=
EXTT7=
EXTT8=
EXTT9=
PLAYORDER=
